<svg id="Layer_1" data-name="Layer 1" xmlns="http://www.w3.org/2000/svg" xmlns:xlink="http://www.w3.org/1999/xlink" viewBox="0 0 86.06 62.66"><defs>
<id="logo">
<style>.cls-1{fill:url(#linear-gradient);}.cls-2{fill:url(#linear-gradient-2);}.cls-3{fill:url(#linear-gradient-3);}.cls-4{fill:#0e7e86;}</style><linearGradient id="linear-gradient" x1="43.03" y1="-1.82" x2="43.03" y2="44.36" gradientUnits="userSpaceOnUse"><stop offset="0" stop-color="#0d7e86"/><stop offset="1" stop-color="#04a9a0"/></linearGradient><linearGradient id="linear-gradient-2" x1="23.94" y1="16.83" x2="23.94" y2="42.9" gradientUnits="userSpaceOnUse"><stop offset="0" stop-color="#5d5d60"/><stop offset="1" stop-color="#363334"/></linearGradient><linearGradient id="linear-gradient-3" x1="23.73" y1="16.83" x2="23.73" y2="42.9" xlink:href="#linear-gradient-2"/></defs><path class="cls-1" d="M62.59,6.14H61.22c-16.08,0-32.17,0-48.25,0-1.11,0-1.37-.34-1.3-1.35a31.11,31.11,0,0,0,0-3.74C11.62.18,12,0,12.81,0c9.25,0,18.51,0,27.77,0H74.39L50.67,37.25c.57,0,.93.06,1.29.06H71.2c1.33,0,1.34,0,1.34,1.38,0,1.18-.06,2.37,0,3.54.06.91-.23,1.18-1.16,1.18-6,0-12,0-18,0H38.78Z"/><path class="cls-2" d="M24.05,37.31c3.68,0,7.35,0,11,0,.82,0,1.18.17,1.13,1.08-.07,1.38,0,2.77,0,4.16,0,.61-.17.86-.82.86q-11.45,0-22.88,0c-.66,0-.84-.26-.82-.87,0-1.35.06-2.71,0-4.05-.05-.9.21-1.2,1.15-1.19C16.56,37.34,20.31,37.31,24.05,37.31Z"/><path class="cls-3" d="M35.8,24.66H34.61c-7.24,0-14.49,0-21.73,0-1,0-1.27-.28-1.21-1.23.07-1.32,0-2.64,0-3.95,0-.64.22-.83.84-.83,7.49,0,15,0,22.47,0,.45,0,.82,0,.82.63C35.79,21,35.8,22.76,35.8,24.66Z"/><path class="cls-4" d="M6.74,57H.89v4.83H7.3l-.13.82H0V51.17H7V52H.89v4.2H6.74Z"/><path class="logo" d="M8.9,61.92,16.35,52h-7v-.82h8.1v.77L10,61.84h7.55l-.15.82H8.9Z"/><path class="cls-4" d="M18.66,61.92,26.11,52H19.05v-.82h8.11v.77l-7.4,9.9H27.3l-.14.82h-8.5Z"/><path class="cls-4" d="M30,51.17v7c0,3,1.72,3.84,3.35,3.84,1.92,0,3.34-.81,3.34-3.84v-7h.91v6.91c0,3.59-1.91,4.71-4.28,4.71s-4.24-1.23-4.24-4.56V51.17Z"/><path class="cls-4" d="M40.8,51.17h.88V61.84h6.17l-.16.82H40.8Z"/><path class="cls-4" d="M49.62,51.17h3.81c3.14,0,5.33,2.2,5.33,5.65s-2.14,5.84-5.35,5.84H49.62Zm.89,10.67h2.77c3,0,4.53-2.14,4.53-5,0-2.53-1.35-4.88-4.53-4.88H50.51Z"/><path class="cls-4" d="M61.28,51.17h3.8c3.15,0,5.34,2.2,5.34,5.65s-2.14,5.84-5.35,5.84H61.28Zm.88,10.67h2.78c3,0,4.52-2.14,4.52-5,0-2.53-1.34-4.88-4.52-4.88H62.16Z"/><path class="cls-4" d="M73.82,51.17V62.66h-.88V51.17Z"/><path class="cls-4" d="M77.2,62.66V51.17h1.31c1.79,2.76,6,9.17,6.71,10.42h0c-.1-1.66-.08-3.35-.08-5.22v-5.2h.9V62.66H84.84c-1.7-2.66-6-9.34-6.79-10.6h0c.08,1.51.06,3.18.06,5.26v5.34Z"/></svg>